# xmcd
#
# Track frame offsets:
#	150
#	17225
#	31447
#	45800
#	60450
#	76025
#	91275
#	108465
#	129612
#	148250
#
# Disc length: 2227 seconds
#
# Revision: 2
# Processed by: cddbd v1.5.1PL2 Copyright (c) Steve Scherf et al.
# Submitted via: audiograbber 1.83.01
#
DISCID=7a08b10a
DTITLE=Mixed - Planters Great Country Hits II
DYEAR=1996
DGENRE=Country
TTITLE0=Vince Gill - Never Knew Lonely
TTITLE1=Lorrie Morgan - Tears On My Pillow
TTITLE2=Marty Stuart - Little Things
TTITLE3=The Mavericks - O What A Thrill
TTITLE4=Tracy Byrd - Walking To Jerusalem
TTITLE5=Patty Loveless - Jealous Bone
TTITLE6=Rodney Crowell - Say You Love Me
TTITLE7=K.T. Oslin - Hold Me
TTITLE8=George Jones/Tammy Wynette - One
TTITLE9=Mark Chesnutt - I'll Think Of Something
EXTD=
EXTT0=
EXTT1=
EXTT2=
EXTT3=
EXTT4=
EXTT5=
EXTT6=
EXTT7=
EXTT8=
EXTT9=
PLAYORDER=
